<mxfile host="Electron" modified="2024-05-19T09:08:53.128Z" agent="Mozilla/5.0 (X11; Linux x86_64) AppleWebKit/537.36 (KHTML, like Gecko) draw.io/24.2.5 Chrome/120.0.6099.109 Electron/28.1.0 Safari/537.36" etag="DP2EaSSt8AgKJuUJk1eK" version="24.2.5" type="device">
  <diagram name="Page-1" id="_1vEwel4g_9N3pnmSGF3">
    <mxGraphModel dx="913" dy="601" grid="1" gridSize="10" guides="1" tooltips="1" connect="1" arrows="1" fold="1" page="1" pageScale="1" pageWidth="827" pageHeight="1169" math="0" shadow="0">
      <root>
        <mxCell id="0" />
        <mxCell id="1" parent="0" />
        <mxCell id="-hZ4pJK0jlRXI0FL3KxY-6" style="edgeStyle=orthogonalEdgeStyle;rounded=0;orthogonalLoop=1;jettySize=auto;html=1;" edge="1" parent="1" source="-hZ4pJK0jlRXI0FL3KxY-4" target="-hZ4pJK0jlRXI0FL3KxY-10">
          <mxGeometry relative="1" as="geometry">
            <mxPoint x="350" y="360" as="targetPoint" />
          </mxGeometry>
        </mxCell>
        <mxCell id="-hZ4pJK0jlRXI0FL3KxY-7" value="USB, WIFI" style="edgeLabel;html=1;align=center;verticalAlign=middle;resizable=0;points=[];" vertex="1" connectable="0" parent="-hZ4pJK0jlRXI0FL3KxY-6">
          <mxGeometry x="0.0825" relative="1" as="geometry">
            <mxPoint x="-16" y="-10" as="offset" />
          </mxGeometry>
        </mxCell>
        <mxCell id="-hZ4pJK0jlRXI0FL3KxY-4" value="MASTER (running ROS2)" style="rounded=1;whiteSpace=wrap;html=1;fillColor=#f5f5f5;fontColor=#333333;strokeColor=#666666;" vertex="1" parent="1">
          <mxGeometry x="110" y="330" width="120" height="60" as="geometry" />
        </mxCell>
        <mxCell id="-hZ4pJK0jlRXI0FL3KxY-9" value="MKS-DLC32 Motherboard" style="swimlane;whiteSpace=wrap;html=1;fillColor=#d5e8d4;strokeColor=#82b366;" vertex="1" parent="1">
          <mxGeometry x="340" y="200" width="550" height="310" as="geometry" />
        </mxCell>
        <mxCell id="-hZ4pJK0jlRXI0FL3KxY-15" style="edgeStyle=orthogonalEdgeStyle;rounded=0;orthogonalLoop=1;jettySize=auto;html=1;entryX=0;entryY=0.5;entryDx=0;entryDy=0;" edge="1" parent="-hZ4pJK0jlRXI0FL3KxY-9" source="-hZ4pJK0jlRXI0FL3KxY-8" target="-hZ4pJK0jlRXI0FL3KxY-12">
          <mxGeometry relative="1" as="geometry">
            <Array as="points">
              <mxPoint x="365" y="90" />
              <mxPoint x="365" y="65" />
            </Array>
          </mxGeometry>
        </mxCell>
        <mxCell id="-hZ4pJK0jlRXI0FL3KxY-16" style="edgeStyle=orthogonalEdgeStyle;rounded=0;orthogonalLoop=1;jettySize=auto;html=1;entryX=0;entryY=0.5;entryDx=0;entryDy=0;" edge="1" parent="-hZ4pJK0jlRXI0FL3KxY-9" source="-hZ4pJK0jlRXI0FL3KxY-8" target="-hZ4pJK0jlRXI0FL3KxY-13">
          <mxGeometry relative="1" as="geometry" />
        </mxCell>
        <mxCell id="-hZ4pJK0jlRXI0FL3KxY-17" style="edgeStyle=orthogonalEdgeStyle;rounded=0;orthogonalLoop=1;jettySize=auto;html=1;" edge="1" parent="-hZ4pJK0jlRXI0FL3KxY-9" source="-hZ4pJK0jlRXI0FL3KxY-8" target="-hZ4pJK0jlRXI0FL3KxY-14">
          <mxGeometry relative="1" as="geometry">
            <Array as="points">
              <mxPoint x="365" y="110" />
              <mxPoint x="365" y="135" />
            </Array>
          </mxGeometry>
        </mxCell>
        <mxCell id="-hZ4pJK0jlRXI0FL3KxY-8" value="74HC595 shift register" style="rounded=1;whiteSpace=wrap;html=1;fillColor=#e1d5e7;strokeColor=#9673a6;" vertex="1" parent="-hZ4pJK0jlRXI0FL3KxY-9">
          <mxGeometry x="230" y="70" width="120" height="60" as="geometry" />
        </mxCell>
        <mxCell id="-hZ4pJK0jlRXI0FL3KxY-11" style="edgeStyle=orthogonalEdgeStyle;rounded=0;orthogonalLoop=1;jettySize=auto;html=1;" edge="1" parent="-hZ4pJK0jlRXI0FL3KxY-9" source="-hZ4pJK0jlRXI0FL3KxY-10" target="-hZ4pJK0jlRXI0FL3KxY-8">
          <mxGeometry relative="1" as="geometry">
            <Array as="points">
              <mxPoint x="80" y="100" />
            </Array>
          </mxGeometry>
        </mxCell>
        <mxCell id="-hZ4pJK0jlRXI0FL3KxY-25" value="I2C" style="edgeLabel;html=1;align=center;verticalAlign=middle;resizable=0;points=[];" vertex="1" connectable="0" parent="-hZ4pJK0jlRXI0FL3KxY-11">
          <mxGeometry x="0.3244" y="1" relative="1" as="geometry">
            <mxPoint x="-19" y="-9" as="offset" />
          </mxGeometry>
        </mxCell>
        <mxCell id="-hZ4pJK0jlRXI0FL3KxY-26" style="edgeStyle=orthogonalEdgeStyle;rounded=0;orthogonalLoop=1;jettySize=auto;html=1;" edge="1" parent="-hZ4pJK0jlRXI0FL3KxY-9" source="-hZ4pJK0jlRXI0FL3KxY-10" target="-hZ4pJK0jlRXI0FL3KxY-24">
          <mxGeometry relative="1" as="geometry">
            <Array as="points">
              <mxPoint x="120" y="205" />
            </Array>
          </mxGeometry>
        </mxCell>
        <mxCell id="-hZ4pJK0jlRXI0FL3KxY-27" value="PWM" style="edgeLabel;html=1;align=center;verticalAlign=middle;resizable=0;points=[];" vertex="1" connectable="0" parent="-hZ4pJK0jlRXI0FL3KxY-26">
          <mxGeometry x="0.0919" relative="1" as="geometry">
            <mxPoint y="-8" as="offset" />
          </mxGeometry>
        </mxCell>
        <mxCell id="-hZ4pJK0jlRXI0FL3KxY-10" value="ESP32 micro-controller (running micro-ROS)" style="rounded=1;whiteSpace=wrap;html=1;fillColor=#dae8fc;strokeColor=#6c8ebf;" vertex="1" parent="-hZ4pJK0jlRXI0FL3KxY-9">
          <mxGeometry x="20" y="130" width="120" height="60" as="geometry" />
        </mxCell>
        <mxCell id="-hZ4pJK0jlRXI0FL3KxY-12" value="MOTOR DRIVER 1" style="rounded=1;whiteSpace=wrap;html=1;fillColor=#e1d5e7;strokeColor=#9673a6;" vertex="1" parent="-hZ4pJK0jlRXI0FL3KxY-9">
          <mxGeometry x="400" y="50" width="120" height="30" as="geometry" />
        </mxCell>
        <mxCell id="-hZ4pJK0jlRXI0FL3KxY-14" value="MOTOR DRIVER 3" style="rounded=1;whiteSpace=wrap;html=1;fillColor=#e1d5e7;strokeColor=#9673a6;" vertex="1" parent="-hZ4pJK0jlRXI0FL3KxY-9">
          <mxGeometry x="400" y="120" width="120" height="30" as="geometry" />
        </mxCell>
        <mxCell id="-hZ4pJK0jlRXI0FL3KxY-13" value="MOTOR DRIVER 2" style="rounded=1;whiteSpace=wrap;html=1;fillColor=#e1d5e7;strokeColor=#9673a6;" vertex="1" parent="-hZ4pJK0jlRXI0FL3KxY-9">
          <mxGeometry x="400" y="85" width="120" height="30" as="geometry" />
        </mxCell>
        <mxCell id="-hZ4pJK0jlRXI0FL3KxY-24" value="MOSFET" style="rounded=1;whiteSpace=wrap;html=1;fillColor=#e1d5e7;strokeColor=#9673a6;" vertex="1" parent="-hZ4pJK0jlRXI0FL3KxY-9">
          <mxGeometry x="330" y="190" width="120" height="30" as="geometry" />
        </mxCell>
        <mxCell id="-hZ4pJK0jlRXI0FL3KxY-18" value="STEPPER 1" style="rounded=1;whiteSpace=wrap;html=1;fillColor=#fff2cc;strokeColor=#d6b656;" vertex="1" parent="1">
          <mxGeometry x="920" y="250" width="120" height="30" as="geometry" />
        </mxCell>
        <mxCell id="-hZ4pJK0jlRXI0FL3KxY-19" value="STEPPER 2" style="rounded=1;whiteSpace=wrap;html=1;fillColor=#fff2cc;strokeColor=#d6b656;" vertex="1" parent="1">
          <mxGeometry x="920" y="285" width="120" height="30" as="geometry" />
        </mxCell>
        <mxCell id="-hZ4pJK0jlRXI0FL3KxY-20" value="STEPPER 3" style="rounded=1;whiteSpace=wrap;html=1;fillColor=#fff2cc;strokeColor=#d6b656;" vertex="1" parent="1">
          <mxGeometry x="920" y="320" width="120" height="30" as="geometry" />
        </mxCell>
        <mxCell id="-hZ4pJK0jlRXI0FL3KxY-21" style="edgeStyle=orthogonalEdgeStyle;rounded=0;orthogonalLoop=1;jettySize=auto;html=1;" edge="1" parent="1" source="-hZ4pJK0jlRXI0FL3KxY-12" target="-hZ4pJK0jlRXI0FL3KxY-18">
          <mxGeometry relative="1" as="geometry" />
        </mxCell>
        <mxCell id="-hZ4pJK0jlRXI0FL3KxY-22" style="edgeStyle=orthogonalEdgeStyle;rounded=0;orthogonalLoop=1;jettySize=auto;html=1;" edge="1" parent="1" source="-hZ4pJK0jlRXI0FL3KxY-13" target="-hZ4pJK0jlRXI0FL3KxY-19">
          <mxGeometry relative="1" as="geometry" />
        </mxCell>
        <mxCell id="-hZ4pJK0jlRXI0FL3KxY-23" style="edgeStyle=orthogonalEdgeStyle;rounded=0;orthogonalLoop=1;jettySize=auto;html=1;" edge="1" parent="1" source="-hZ4pJK0jlRXI0FL3KxY-14" target="-hZ4pJK0jlRXI0FL3KxY-20">
          <mxGeometry relative="1" as="geometry" />
        </mxCell>
        <mxCell id="-hZ4pJK0jlRXI0FL3KxY-30" value="GRIPPER" style="rounded=1;whiteSpace=wrap;html=1;fillColor=#fff2cc;strokeColor=#d6b656;" vertex="1" parent="1">
          <mxGeometry x="920" y="390" width="120" height="30" as="geometry" />
        </mxCell>
        <mxCell id="-hZ4pJK0jlRXI0FL3KxY-31" style="edgeStyle=orthogonalEdgeStyle;rounded=0;orthogonalLoop=1;jettySize=auto;html=1;" edge="1" parent="1" source="-hZ4pJK0jlRXI0FL3KxY-24" target="-hZ4pJK0jlRXI0FL3KxY-30">
          <mxGeometry relative="1" as="geometry" />
        </mxCell>
        <mxCell id="-hZ4pJK0jlRXI0FL3KxY-38" style="edgeStyle=orthogonalEdgeStyle;rounded=0;orthogonalLoop=1;jettySize=auto;html=1;entryX=0.25;entryY=1;entryDx=0;entryDy=0;" edge="1" parent="1" source="-hZ4pJK0jlRXI0FL3KxY-32" target="-hZ4pJK0jlRXI0FL3KxY-10">
          <mxGeometry relative="1" as="geometry">
            <Array as="points">
              <mxPoint x="390" y="440" />
              <mxPoint x="390" y="440" />
            </Array>
          </mxGeometry>
        </mxCell>
        <mxCell id="-hZ4pJK0jlRXI0FL3KxY-32" value="LIMIT SWITCH 1" style="rounded=1;whiteSpace=wrap;html=1;fillColor=#fff2cc;strokeColor=#d6b656;" vertex="1" parent="1">
          <mxGeometry x="340" y="540" width="120" height="30" as="geometry" />
        </mxCell>
        <mxCell id="-hZ4pJK0jlRXI0FL3KxY-39" style="edgeStyle=orthogonalEdgeStyle;rounded=0;orthogonalLoop=1;jettySize=auto;html=1;" edge="1" parent="1" source="-hZ4pJK0jlRXI0FL3KxY-35" target="-hZ4pJK0jlRXI0FL3KxY-10">
          <mxGeometry relative="1" as="geometry">
            <Array as="points">
              <mxPoint x="520" y="470" />
              <mxPoint x="410" y="470" />
            </Array>
          </mxGeometry>
        </mxCell>
        <mxCell id="-hZ4pJK0jlRXI0FL3KxY-35" value="LIMIT SWITCH 2" style="rounded=1;whiteSpace=wrap;html=1;fillColor=#fff2cc;strokeColor=#d6b656;" vertex="1" parent="1">
          <mxGeometry x="470" y="540" width="120" height="30" as="geometry" />
        </mxCell>
        <mxCell id="-hZ4pJK0jlRXI0FL3KxY-36" value="LIMIT SWITCH 3" style="rounded=1;whiteSpace=wrap;html=1;fillColor=#fff2cc;strokeColor=#d6b656;" vertex="1" parent="1">
          <mxGeometry x="600" y="540" width="120" height="30" as="geometry" />
        </mxCell>
        <mxCell id="-hZ4pJK0jlRXI0FL3KxY-42" style="edgeStyle=orthogonalEdgeStyle;rounded=0;orthogonalLoop=1;jettySize=auto;html=1;entryX=0.592;entryY=1.02;entryDx=0;entryDy=0;entryPerimeter=0;" edge="1" parent="1" source="-hZ4pJK0jlRXI0FL3KxY-36" target="-hZ4pJK0jlRXI0FL3KxY-10">
          <mxGeometry relative="1" as="geometry">
            <Array as="points">
              <mxPoint x="660" y="450" />
              <mxPoint x="431" y="450" />
            </Array>
          </mxGeometry>
        </mxCell>
      </root>
    </mxGraphModel>
  </diagram>
</mxfile>
